<?xml version="1.0" encoding="utf-8"?>
<!-- Svg Vector Icons : http://www.onlinewebfonts.com/icon -->
<!DOCTYPE svg PUBLIC "-//W3C//DTD SVG 1.1//EN" "http://www.w3.org/Graphics/SVG/1.1/DTD/svg11.dtd">
<svg version="1.1" xmlns="http://www.w3.org/2000/svg" xmlns:xlink="http://www.w3.org/1999/xlink" x="0px" y="0px" viewBox="0 0 1000 1000" enable-background="new 0 0 1000 1000" xml:space="preserve">
<metadata> Svg Vector Icons : http://www.onlinewebfonts.com/icon </metadata>
<g><path d="M982.6,821.9l-156-203.7c55.3-52.7,90-126.8,90-208.9c0-159.5-130.1-289.2-290-289.2c-159.9,0-290,129.8-290,289.2c0,159.5,130.1,289.2,290,289.2c51.5,0,99.8-13.6,141.8-37.2l156.5,204.4c7.1,9.3,17.9,14.2,28.9,14.2c7.7,0,15.4-2.4,21.9-7.4C991.7,860.4,994.7,837.7,982.6,821.9L982.6,821.9z M403.8,409.2c0-122.5,99.9-222.1,222.8-222.1s222.8,99.6,222.8,222.1c0,122.5-99.9,222.1-222.8,222.1C503.7,631.4,403.8,531.7,403.8,409.2L403.8,409.2z M263.4,263.8H46.2c-20,0-36.2-16.2-36.2-36.1c0-19.9,16.2-36.1,36.2-36.1h217.2c20,0,36.2,16.2,36.2,36.1C299.7,247.6,283.4,263.8,263.4,263.8L263.4,263.8z M191.1,536H46.2c-20,0-36.2-16.2-36.2-36.1c0-20,16.2-36.2,36.2-36.2h144.8c20,0,36.2,16.2,36.2,36.2C227.3,519.9,211,536,191.1,536L191.1,536z M445.1,806.1H46.3c-20,0-36.3-16.2-36.3-36.2s16.2-36.2,36.3-36.2h398.8c20,0,36.3,16.2,36.3,36.2S465.1,806.1,445.1,806.1L445.1,806.1z"/><path d="M453.8,406.5c0,97.2,78.8,176,176,176c97.2,0,176-78.8,176-176c0-97.2-78.8-176-176-176C532.6,230.5,453.8,309.3,453.8,406.5z"/></g>
</svg>