<?xml version="1.0" encoding="utf-8"?>
<!-- Svg Vector Icons : http://www.onlinewebfonts.com/icon -->
<!DOCTYPE svg PUBLIC "-//W3C//DTD SVG 1.1//EN" "http://www.w3.org/Graphics/SVG/1.1/DTD/svg11.dtd">
<svg version="1.1" xmlns="http://www.w3.org/2000/svg" xmlns:xlink="http://www.w3.org/1999/xlink" x="0px" y="0px" viewBox="0 0 1000 1000" enable-background="new 0 0 1000 1000" xml:space="preserve">
<metadata> Svg Vector Icons : http://www.onlinewebfonts.com/icon </metadata>
<g><path d="M105.3,991.8c0-174.5,0-348.2,0-519.9c-11.1,10.2-23,20.7-34.5,31.7c-8.1,7.8-15.5,16.2-23.4,24.3c-10.9,11.3-23.3,12.9-32,4.3c-8.4-8.3-7.1-20.4,3.4-31.4C60,457.8,101.1,415,142.1,372.2C254.8,254.9,367.4,137.6,480,20.3c15.5-16.1,24.7-16.1,40.1,0.1c153.7,160.1,307.4,320.2,461.1,480.4c13.1,13.6,11.2,30.3-4,35.8c-9.9,3.6-17.3-1.2-23.9-8c-16.9-17.6-33.8-35.2-50.7-52.7c-2.1-2.2-4.4-4.2-7.9-7.5c0,175.4,0,349.1,0,523.5C631.6,991.8,369.2,991.8,105.3,991.8z M854.3,952.7c0.2-3.6,0.4-6.2,0.4-8.7c0-170,0.1-340-0.3-510c0-5-2.9-11.1-6.4-14.8C734.3,300.2,620.4,181.5,506.4,62.8c-1.9-2-4.1-3.9-6.4-6.1c-1.8,1.7-3.2,2.9-4.5,4.2c-115,119.9-230.1,239.7-344.9,359.8c-3.2,3.4-4.9,9.6-4.9,14.5c-0.3,169-0.2,338.1-0.2,507.1c0,3.4,0.3,6.8,0.5,10.2c72.4,0,143.8,0,216.1,0c0-137.8,0-275,0-412.7c92.4,0,183.9,0,276.3,0c0,137.9,0,275.1,0,412.8C710.7,952.7,782,952.7,854.3,952.7z M597.8,952.7c0-124.8,0-249,0-373.4c-65.5,0-130.4,0-195.5,0c0,124.7,0,248.9,0,373.4C467.9,952.7,532.8,952.7,597.8,952.7z"/><path d="M775.9,145.6c-13.4,0-25.5,0-38.9,0c0,19.2,0,38.4,0,57.7c-0.7,0.3-1.5,0.6-2.2,0.9c-12.1-12.6-24.1-25.2-36.1-37.9c-0.8-0.9-1.4-2.3-1.4-3.5c-0.1-18.8-0.1-37.6-0.1-56.9c39.8,0,78.4,0,117.7,0c0,60.1,0,119.8,0,175.6c-11.2-9.8-24.6-21.3-37.6-33.4c-1.8-1.6-1.3-6-1.3-9.2C775.9,208.2,775.9,177.5,775.9,145.6z"/></g>
</svg>