<?xml version="1.0" encoding="utf-8"?>
<!-- Svg Vector Icons : http://www.onlinewebfonts.com/icon -->
<!DOCTYPE svg PUBLIC "-//W3C//DTD SVG 1.1//EN" "http://www.w3.org/Graphics/SVG/1.1/DTD/svg11.dtd">
<svg version="1.1" xmlns="http://www.w3.org/2000/svg" xmlns:xlink="http://www.w3.org/1999/xlink" x="0px" y="0px" viewBox="0 0 1000 1000" enable-background="new 0 0 1000 1000" xml:space="preserve">
<metadata> Svg Vector Icons : http://www.onlinewebfonts.com/icon </metadata>
<g><path d="M422.5,797.3c-45.2,0-81.9,36.8-81.9,81.9c0,45.2,36.7,81.9,81.9,81.9c45.2,0,81.9-36.8,81.9-81.9C504.4,834.1,467.7,797.3,422.5,797.3z M422.5,924.7c-25.1,0-45.5-20.4-45.5-45.5c0-25.1,20.4-45.5,45.5-45.5c25.1,0,45.5,20.4,45.5,45.5C468,904.3,447.6,924.7,422.5,924.7z"/><path d="M788.4,797.3c-45.2,0-81.9,36.8-81.9,81.9c0,45.2,36.7,81.9,81.9,81.9s81.9-36.8,81.9-81.9C870.3,834.1,833.5,797.3,788.4,797.3z M788.4,924.7c-25.1,0-45.5-20.4-45.5-45.5c0-25.1,20.4-45.5,45.5-45.5c25.1,0,45.5,20.4,45.5,45.5C833.9,904.3,813.5,924.7,788.4,924.7z"/><path d="M892.2,286.1l-1.8-0.4l-99.4,0.6c-7.7-0.7-17.3-0.6-21.8,0l-147,0.7l-145.4-0.6c-8-0.8-17.7-0.7-21.8-0.2l-101.2-0.5l-1.8,0.4c-37.2,7.4-67.1,31.2-83.6,62.4l-70.7-300c-1.9-8.2-9.2-9.6-17.7-9.6H28.2C18.2,38.9,10,47,10,57.1c0,10.1,8.2,18.2,18.2,18.2h137.2l131.3,560.8c0,0.1,0.1-2.1,0.1-2c10,48.9,48.2,85,97.3,93.9c2.2,0.6,4.4,0.6,6.6,1.1l1.8,0.1l11.6-0.2l-0.1-18.3l2.4,18.2l205.6-1l205.8,1l0.1-18.2l2.2,18.2l11.6,0.1l1.8-0.4c2.2-0.4,4.4-1,6.4-1.6c49.6-8.9,87.9-46.5,97.7-95.8l40.1-202.2C1000.6,363.2,957.8,299.1,892.2,286.1z M951.9,421.7L911.9,624c-6.8,34.5-33.7,60.9-68.4,67.1l-2.9,0.7c-0.9,0.2-1.8,0.5-2.7,0.7l-216-1.1l-215.8,1.1c-0.9-0.2-1.8-0.5-2.7-0.7l-2.9-0.7c-34.7-6.2-61.6-32.5-68.4-67.1l-40.1-202.2c-9-45.4,20.1-89.7,65.2-99.5l99.2,0.4c5.4-0.5,9.2-0.6,18.2,0.2l147.4,0.7l149-0.8c5.6-0.6,9.1-0.7,18.2,0l97.4-0.5C931.8,332.1,960.9,376.3,951.9,421.7z"/></g>
</svg>