<?xml version="1.0" encoding="utf-8"?>
<!-- Svg Vector Icons : http://www.onlinewebfonts.com/icon -->
<!DOCTYPE svg PUBLIC "-//W3C//DTD SVG 1.1//EN" "http://www.w3.org/Graphics/SVG/1.1/DTD/svg11.dtd">
<svg version="1.1" xmlns="http://www.w3.org/2000/svg" xmlns:xlink="http://www.w3.org/1999/xlink" x="0px" y="0px" viewBox="0 0 1000 1000" enable-background="new 0 0 1000 1000" xml:space="preserve">
<metadata> Svg Vector Icons : http://www.onlinewebfonts.com/icon </metadata>
<g><path d="M416.1,797.6c-3.3-4.8-7.1-9.3-11.5-13.7c-8.8-8.8-18.6-15.3-29.6-19.7c-11.7-4.4-23.7-6.6-36.2-6.6l0,0c-2.9,0-6,0.2-9.3,0.6c-3.3,0.3-6.4,0.7-9.3,1.1c-2.9,0.4-5.8,1.1-8.8,2.2c-2.9,1.1-5.9,2-8.8,2.7c-3.7,1.4-7.3,3.3-11,5.5l-8.8,6.6c-3.6,2.2-6.9,4.8-9.9,7.7c-4.4,4.4-8.2,9-11.5,13.7c-3.3,4.7-6,9.7-8.2,14.8c-4.4,11.7-6.6,23.6-6.6,35.6c0,12,2.2,23.5,6.6,34.5c4.4,10.2,11,20.1,19.7,29.6c8.8,8,18.6,14.6,29.6,19.7c10.9,4.4,23,6.6,36.2,6.6c12.4,0,24.3-2.4,35.6-7.1c11.3-4.7,21.4-11.1,30.1-19.2c8.8-9.5,15.4-19.4,19.7-29.6c5.1-10.9,7.7-22.4,7.7-34.5c0-12.1-2.6-23.9-7.7-35.6C422.1,807.2,419.4,802.3,416.1,797.6z"/><path d="M984.4,228.2c-2.2-3.6-5.1-6.9-8.8-9.9c-3.6-2.9-8-5.5-13.1-7.7c-10.2-5.1-24.8-7.7-43.8-7.7l-0.1,0H239.1l-5.5-37.3l-4.4-28.5v-5.5c-1.5-8-2.6-13.5-3.3-16.4l-5.5-17.5c-1.4-5.8-4.4-12.1-8.8-18.6c-2.9-2.9-6-5.5-9.3-7.7c-3.3-2.2-6.8-4.4-10.4-6.6c-8-3.6-18.6-5.5-31.8-5.5H59.3c-7.3,0-13.9,1.1-19.7,3.3c-5.8,2.2-11.3,5.1-16.4,8.8C14.4,80.2,10,91.2,10,104.4c0,2.9,0.2,6.2,0.6,9.9c0.4,3.6,0.9,7.3,1.6,11c0.7,3.7,2,7.3,3.8,11c1.8,3.6,3.5,7.7,4.9,12.1c5.1,6.6,11,12.4,17.5,17.5c5.9,4.4,13.9,6.6,24.1,6.6h74.5l42.7,220.3l16.4,84.4l14.2,75.6l11,55.9L227,637c1.5,7.3,4,17.9,7.7,31.8c2.2,5.9,4.6,11.4,7.1,16.4c2.5,5.1,5.3,9.8,8.2,14.2c5.8,9.5,13.2,17.2,21.9,23c2.9,2.2,6,3.8,9.3,4.9c3.3,1.1,7,2,11,2.7c4,0.7,8.2,1.1,12.6,1.1h520.6c19,0,31.4-4.8,37.3-14.2c6.6-9.5,9.9-20.8,9.9-34c0-27-16.1-40.5-48.2-40.5H324.6l-15.4-87.7h521.7c19,0,35.1-5.1,48.2-15.4c6.6-5.1,12.6-12.2,18.1-21.4c5.5-9.1,10.4-19.9,14.8-32.3c2.2-6.6,8-23.7,17.5-51.5l23-64.7l20.8-60.3l13.2-36.2c0.7-2.2,1.3-4.4,1.6-6.6c0.3-2.2,0.7-4.6,1.1-7.1c0.4-2.5,0.6-5.3,0.6-8.2C990.6,243.2,988.8,235.5,984.4,228.2z"/><path d="M817.8,786.1c-8-8.8-17.9-15.3-29.6-19.7c-5.8-2.2-11.9-3.8-18.1-4.9c-6.2-1.1-12.2-1.7-18.1-1.7l0,0c-4.4,0-8.6,0.2-12.6,0.6c-4,0.4-8,1.1-12.1,2.2c-4,1.1-7.9,2.3-11.5,3.8c-5.1,2.2-10.2,4.9-15.4,8.2c-5.1,3.3-9.5,7.1-13.1,11.5c-8.8,8.8-15.4,18.3-19.7,28.5c-2.9,5.8-4.9,11.7-6,17.5c-1.1,5.8-1.7,11.7-1.7,17.5c0,12.4,2.6,24.1,7.7,35.1c4.4,10.2,11,20.1,19.7,29.6c7.3,7.3,16.8,13.5,28.5,18.6c11,5.1,23,7.7,36.2,7.7c13.1,0,25.2-2.6,36.2-7.7c11.7-4.4,21.6-10.6,29.6-18.6c8.8-9.5,15.7-19.4,20.8-29.6c2.2-5.1,3.8-10.8,4.9-17c1.1-6.2,1.6-12.2,1.6-18.1c0-12.4-2.2-24.1-6.6-35.1C833.5,804.3,826.6,794.8,817.8,786.1z"/></g>
</svg>